<svg width="360" height="360" viewBox="0 0 360 360" fill="none" xmlns="http://www.w3.org/2000/svg">
<circle cx="180" cy="180" r="180" fill="#941BBE"/>
<path d="M254.166 180.083C254.166 194.735 249.821 209.058 241.681 221.241C233.54 233.424 221.97 242.919 208.433 248.527C194.896 254.134 180.001 255.601 165.63 252.742C151.259 249.884 138.059 242.828 127.698 232.467C117.338 222.107 110.282 208.906 107.423 194.536C104.565 180.165 106.032 165.269 111.639 151.733C117.246 138.196 126.742 126.626 138.925 118.485C151.108 110.345 165.431 106 180.083 106" stroke="white" stroke-width="24" stroke-linecap="round"/>
<circle cx="180.359" cy="180.359" r="43.3587" fill="white"/>
<circle cx="180" cy="180" r="116" stroke="white" stroke-width="18"/>
</svg>
